<?xml version="1.0" encoding="utf-8"?>
<!-- Generator: Adobe Illustrator 16.0.0, SVG Export Plug-In . SVG Version: 6.00 Build 0)  -->
<!DOCTYPE svg PUBLIC "-//W3C//DTD SVG 1.1//EN" "http://www.w3.org/Graphics/SVG/1.1/DTD/svg11.dtd">
<svg version="1.1" id="Layer_1" xmlns="http://www.w3.org/2000/svg" xmlns:xlink="http://www.w3.org/1999/xlink" x="0px" y="0px"
	 width="346px" height="80px" viewBox="0 0 346 80" enable-background="new 0 0 346 80" xml:space="preserve">
<rect x="20.785" y="65.996" fill="#E6007E" width="127.016" height="0.984"/>
<rect x="207.668" y="65.996" fill="#E6007E" width="123.117" height="0.984"/>
<g>
	<g>
		<path fill="#E6007E" d="M25.784,56.289l-1.748-1.729c-0.264-0.307-0.395-0.627-0.395-0.959s0.442-1.483,1.325-3.455
			c0.639-1.406,1.499-3.34,2.579-5.795c1.081-2.459,1.95-4.479,2.607-6.066c0.658-1.586,1.461-3.666,2.41-6.238
			c0.949-2.572,1.818-5.087,2.607-7.543c1.823-5.656,2.734-9.265,2.734-10.826c0-1.843-0.527-2.764-1.579-2.764
			c-0.789,0-1.912,0.543-3.368,1.631c-1.457,1.088-2.964,2.515-4.524,4.28c-1.559,1.766-2.856,3.608-3.89,5.528
			c-1.033,1.919-1.55,3.609-1.55,5.068c0,0.23,0.047,0.403,0.141,0.518c0.094,0.115,0.264,0.172,0.507,0.172
			c0.451,0,1.184-0.358,2.199-1.075c0.451-0.307,0.677-0.255,0.677,0.154c0,0.409-0.714,1.465-2.143,3.167
			c-1.428,1.702-2.48,2.553-3.157,2.553c-0.583,0-1.395-0.685-2.438-2.054c-1.042-1.369-1.564-2.616-1.564-3.743
			c0-0.435,0.292-1.472,0.874-3.109c0.583-1.638,1.381-3.487,2.396-5.547c1.015-2.061,2.086-3.846,3.213-5.355
			c1.296-1.766,2.776-3.34,4.439-4.722c1.663-1.381,3.26-2.457,4.792-3.224c1.532-0.768,2.767-1.152,3.707-1.152
			c1.353,0,2.41,0.698,3.171,2.092c0.761,1.395,1.141,3.346,1.141,5.854c0,3.327-0.958,8.139-2.875,14.434
			c-1.916,6.296-4.867,13.667-8.85,22.112c0.056,0.256,0.122,0.531,0.197,0.824c0.075,0.296,0.113,0.57,0.113,0.826
			c0,0.052-0.028,0.147-0.085,0.289c-0.056,0.141-0.122,0.287-0.197,0.44s-0.123,0.256-0.142,0.308l-2.057,4.606
			c-0.226,0.538-0.46,0.806-0.705,0.806C26.122,56.596,25.934,56.494,25.784,56.289z"/>
		<path fill="#E6007E" d="M57.352,36.135c-3.308,5.016-4.961,8.51-4.961,10.48c0,1.101,0.329,1.65,0.986,1.65
			c0.545,0,1.254-0.391,2.128-1.171s2.241-2.169,4.101-4.165v2.648c-2.668,3.583-4.716,6.168-6.144,7.755
			c-1.428,1.586-2.593,2.38-3.495,2.38c-1.541,0-2.312-1.382-2.312-4.146c0-0.818,0.094-1.625,0.282-2.418s0.446-1.618,0.775-2.476
			c0.329-0.856,0.831-2.086,1.508-3.687c0.676-1.598,1.457-3.409,2.339-5.431c-1.071,0.742-2.414,2.214-4.031,4.415
			c-1.052,1.382-1.945,2.693-2.678,3.936c-0.733,1.241-1.517,2.622-2.354,4.146c-0.836,1.522-1.447,2.547-1.832,3.071
			c-0.386,0.524-0.775,0.787-1.17,0.787c-0.602,0-1.156-0.857-1.663-2.572s-0.761-3.711-0.761-5.989
			c0-1.406,0.118-2.508,0.353-3.301c0.235-0.793,0.7-1.92,1.395-3.378c1.297-2.713,2.415-4.703,3.354-5.97
			c0.94-1.267,1.842-1.9,2.707-1.9c0.601,0,1.085,0.141,1.451,0.423c0.367,0.282,0.549,0.716,0.549,1.305
			c0,0.256-0.056,0.525-0.168,0.807c-0.113,0.282-0.24,0.537-0.381,0.768c-0.141,0.23-0.437,0.678-0.888,1.344
			c-2.969,4.479-4.453,7.383-4.453,8.714c0,0.742,0.178,1.113,0.536,1.113c0.225,0,0.662-0.493,1.31-1.479
			c0.648-0.984,1.485-2.277,2.509-3.877c1.024-1.599,2.236-3.269,3.636-5.009c1.399-1.74,2.992-3.417,4.777-5.029
			c0.996-0.947,1.823-1.42,2.48-1.42c0.301,0,0.597,0.563,0.888,1.689s0.437,2.265,0.437,3.417
			C58.564,34.126,58.16,34.984,57.352,36.135z"/>
		<path fill="#E6007E" d="M59.325,44.159v-0.923c4.848-6.96,8.184-11.835,10.006-14.625c0.414-3.147,1.409-4.722,2.988-4.722
			c0.395,0,0.817,0.154,1.269,0.461l0.169,0.729c-0.075,0.308-0.112,0.742-0.112,1.305c0,0.487,0.136,1.389,0.409,2.707
			c0.272,1.317,0.484,2.424,0.634,3.32s0.226,1.907,0.226,3.033c0,1.689-0.282,3.308-0.846,4.856
			c-0.563,1.548-1.381,3.032-2.452,4.453c-1.071,1.421-2.452,2.873-4.143,4.356c0.676,0.154,1.212,0.23,1.606,0.23
			c0.77,0,1.602-0.262,2.495-0.787c0.893-0.525,1.804-1.229,2.734-2.111c0.93-0.881,2.016-2.027,3.255-3.436v2.572
			c-2.405,3.199-4.556,5.624-6.455,7.273c-1.898,1.651-3.533,2.478-4.904,2.478c-1.766,0-3.401-1.022-4.904-3.071
			c-0.883-1.229-1.433-2.406-1.649-3.531C59.435,47.6,59.325,46.078,59.325,44.159z M69.838,38.285l-0.508-5.604
			c-1.165,1.792-3.655,5.234-7.469,10.327c1.128,0.333,1.898,0.78,2.311,1.344c0.414,0.563,0.997,1.651,1.748,3.264
			c1.278-0.717,2.26-1.696,2.945-2.938c0.686-1.24,1.029-2.937,1.029-5.087c0-0.255-0.005-0.486-0.014-0.69
			C69.871,38.694,69.857,38.49,69.838,38.285z"/>
		<path fill="#E6007E" d="M77.11,46.309V43.62c2.631-3.89,4.9-7.549,6.807-10.979c1.907-3.429,3.416-6.155,4.524-8.177
			c1.108-2.021,2.086-3.448,2.931-4.28c0.846-0.832,1.907-1.248,3.186-1.248c0.639,0,0.958,0.333,0.958,0.999
			c0,0.537-0.258,1.331-0.775,2.38c-0.517,1.049-1.179,2.124-1.987,3.225c-1.071,1.433-2.118,3.231-3.143,5.394
			c-1.024,2.162-2.185,4.92-3.481,8.272c1.015-1.075,2.185-2.348,3.509-3.819c1.325-1.472,2.406-2.623,3.242-3.455
			s1.663-1.491,2.48-1.977c0.817-0.486,1.639-0.729,2.466-0.729c0.526,0,0.869,0.127,1.029,0.384
			c0.16,0.255,0.239,0.755,0.239,1.497c0,1.945-0.348,3.845-1.043,5.701c-0.695,1.855-1.691,3.781-2.988,5.777
			c-1.296,1.996-2.894,4.171-4.792,6.526c0.658,0.332,1.334,0.5,2.029,0.5c2.18,0,5.102-2.267,8.766-6.795v2.764
			c-1.428,1.74-2.823,3.378-4.186,4.914c-1.362,1.536-2.644,2.764-3.847,3.686c-1.203,0.922-2.311,1.381-3.326,1.381
			c-0.375,0-0.775-0.058-1.197-0.172c-0.423-0.115-0.813-0.257-1.17-0.424c-0.357-0.166-0.817-0.402-1.381-0.71
			c-0.564-0.307-0.997-0.524-1.297-0.651c-0.601,0.205-0.939,0.307-1.015,0.307c-0.658,0-1.428-0.358-2.311-1.075
			c-0.621,1.638-1.302,3.756-2.044,6.354c-0.742,2.597-1.367,4.664-1.874,6.199c-0.507,1.536-1.184,3.008-2.029,4.416
			c-0.47,0.639-0.799,0.959-0.987,0.959c-0.808,0-1.212-0.972-1.212-2.918c0-1.688,0.249-3.447,0.747-5.277s1.109-3.564,1.833-5.202
			c0.723-1.638,1.517-3.296,2.381-4.972c0.865-1.677,1.475-2.925,1.832-3.744c2.969-6.961,5.28-12.885,6.934-17.773
			C82.597,38.042,79.327,43.186,77.11,46.309z M88.554,48.189c1.86-2.662,3.246-4.926,4.157-6.795
			c0.912-1.869,1.368-3.303,1.368-4.3c0-0.947-0.348-1.421-1.043-1.421c-0.939,0-2.259,1.056-3.96,3.167
			c-1.701,2.111-3.453,4.958-5.256,8.541c1.39-0.204,2.32-0.274,2.79-0.211C87.079,47.236,87.727,47.575,88.554,48.189z"/>
		<path fill="#E6007E" d="M114.344,43.083v2.803c-1.823,3.199-3.523,5.611-5.102,7.236c-1.579,1.625-2.922,2.438-4.03,2.438
			c-1.541,0-2.688-1.102-3.439-3.303s-1.127-4.605-1.127-7.217c0-0.998,0.075-1.952,0.225-2.859c0.15-0.91,0.329-1.658,0.536-2.247
			c0.207-0.589,0.592-1.51,1.155-2.764c2.668-5.656,5.111-8.484,7.328-8.484c1.146,0,1.72,0.602,1.72,1.804
			c0,0.819-0.371,2.099-1.113,3.839c-0.742,1.741-1.405,2.982-1.987,3.724c-1.635,2.15-2.701,3.647-3.199,4.492
			s-0.747,1.804-0.747,2.878c0,0.922,0.254,1.689,0.761,2.305c0.508,0.613,1.165,0.92,1.973,0.92c0.883,0,1.856-0.44,2.917-1.324
			C111.276,46.441,112.653,45.027,114.344,43.083z M112.427,25.924c-0.47,0-0.916-0.243-1.339-0.729
			c-0.423-0.486-0.634-1.1-0.634-1.843c0-1.126,0.395-2.38,1.184-3.762c0.789-1.381,1.607-2.073,2.452-2.073
			c0.564,0,1.033,0.237,1.409,0.71s0.564,1.158,0.564,2.054c0,1.101-0.385,2.316-1.156,3.646
			C114.136,25.259,113.311,25.924,112.427,25.924z"/>
		<path fill="#E6007E" d="M113.809,46.04v-2.496c1.015-1.638,1.785-3.032,2.311-4.184c-0.601-0.282-1.038-0.627-1.311-1.036
			c-0.272-0.41-0.409-1.024-0.409-1.843c0-0.921,0.282-2.086,0.845-3.494c0.564-1.407,1.259-2.726,2.086-3.954
			c0.827-1.229,1.579-2.022,2.255-2.381c0.263-0.179,0.517-0.269,0.761-0.269c0.376,0,0.564,0.243,0.564,0.729
			c0,0.435-0.291,1.318-0.874,2.649c3.871-0.819,6.313-1.229,7.328-1.229c0.395,0,0.667,0.051,0.817,0.153
			c0.319,0.23,0.583,0.768,0.79,1.612c0.207,0.845,0.31,1.689,0.31,2.534c0,0.537-0.174,1.119-0.521,1.746
			c-0.348,0.627-0.944,1.542-1.79,2.745c-0.996,1.459-1.832,3.045-2.508,4.76c-0.676,1.715-1.015,3.007-1.015,3.877
			c0,1.203,0.544,1.805,1.635,1.805c1.146,0,3.138-1.588,5.975-4.761v2.572c-1.559,2.227-2.847,3.979-3.861,5.259
			c-1.015,1.28-1.954,2.297-2.818,3.052c-0.865,0.755-1.635,1.132-2.312,1.132c-0.79,0-1.447-0.492-1.973-1.478
			c-0.526-0.985-0.79-2.412-0.79-4.281c0-1.1,0.207-2.354,0.62-3.762c0.414-1.408,1.02-2.937,1.818-4.587
			c0.799-1.651,1.696-3.295,2.691-4.933c-0.525,0.153-1.118,0.314-1.775,0.48c-0.657,0.166-1.353,0.338-2.085,0.518
			c-0.733,0.179-1.297,0.32-1.691,0.422C117.717,40.575,116.026,43.455,113.809,46.04z"/>
		<path fill="#E6007E" d="M135.456,44.466v0.959c0,1.511,0.272,2.688,0.817,3.532c0.545,0.845,1.259,1.268,2.143,1.268
			c0.92,0,1.874-0.295,2.861-0.884c0.986-0.589,1.968-1.368,2.945-2.342c0.977-0.972,2.17-2.278,3.58-3.916v2.341
			c-2.124,3.481-4.115,6.149-5.976,8.006c-1.86,1.854-3.749,2.782-5.666,2.782c-1.672,0-2.997-0.883-3.974-2.647
			c-0.977-1.767-1.466-4.186-1.466-7.256c0-2.688,0.46-5.125,1.381-7.313c0.921-2.188,2.424-4.498,4.51-6.929
			c1.428-1.663,2.847-2.917,4.256-3.762c1.409-0.844,2.668-1.267,3.777-1.267c0.883,0,1.583,0.275,2.1,0.826
			c0.517,0.551,0.775,1.375,0.775,2.476c0,1.612-0.441,3.219-1.325,4.818c-0.883,1.6-2.231,3.187-4.045,4.76
			C140.336,41.49,138.104,43.007,135.456,44.466z M135.737,41.97c1.691-0.896,3.138-2.009,4.341-3.339
			c1.202-1.331,2.09-2.604,2.664-3.82c0.573-1.216,0.859-2.105,0.859-2.668c0-0.588-0.198-0.883-0.592-0.883
			c-0.338,0-0.888,0.294-1.649,0.883c-0.761,0.589-1.531,1.357-2.312,2.303c-0.78,0.947-1.48,2.061-2.1,3.34
			C136.329,39.066,135.925,40.46,135.737,41.97z"/>
	</g>
	<g>
		<path fill="#E6007E" d="M227.813,47.684l0.959,0.928c-0.252,0.691-0.494,1.298-0.727,1.816c-0.232,0.52-0.513,1.149-0.842,1.891
			c-0.329,0.742-0.581,1.299-0.755,1.67c-1.451,3.238-2.815,4.857-4.093,4.857c-0.543,0-1.008-0.271-1.395-0.816
			c-0.387-0.543-0.581-1.285-0.581-2.225c0-1.335,0.373-3.164,1.118-5.488s1.896-5.187,3.454-8.586
			c1.558-3.398,3.519-7.25,5.878-11.551c2.361-4.302,5.021-8.839,7.982-13.61c-1.703-0.322-3.726-0.482-6.066-0.482
			c-2.689,0-5.686,0.383-8.984,1.149c-3.299,0.767-6.173,1.65-8.621,2.652c-2.447,1.001-3.672,1.736-3.672,2.207
			c0,0.173,0.049,0.291,0.146,0.353c0.098,0.062,0.257,0.111,0.479,0.147c0.222,0.037,0.509,0.081,0.856,0.13
			c2.264,0.396,3.396,0.84,3.396,1.335c0,0.247-0.494,0.365-1.48,0.352c-0.987-0.012-2.178-0.018-3.57-0.018
			c-1.104,0-1.902-0.056-2.395-0.167c-0.494-0.111-0.823-0.321-0.988-0.63c-0.164-0.309-0.246-0.785-0.246-1.428
			c0-0.421,0.098-1.335,0.29-2.745c0.368-2.621,0.935-4.722,1.698-6.304c0.765-1.582,1.936-2.874,3.513-3.875
			s3.749-1.799,6.517-2.392c4.646-1.014,8.486-1.521,11.524-1.521c2.245,0,4.017,0.117,5.312,0.352
			c1.297,0.235,2.25,0.575,2.859,1.02c0.609,0.445,0.997,0.884,1.161,1.317c0.165,0.433,0.383,1.18,0.653,2.243l0.899,3.412
			c0.058,0.222,0.106,0.402,0.146,0.538c0.039,0.136,0.072,0.278,0.102,0.426s0.044,0.285,0.044,0.408
			c0,0.964-0.169,1.83-0.508,2.596s-0.958,1.916-1.858,3.449c-0.898,1.533-1.563,2.732-1.988,3.597
			C233.039,35.05,229.633,42.714,227.813,47.684z"/>
		<path fill="#E6007E" d="M255.826,43.309v2.484c-1.277,1.482-2.305,2.473-3.077,2.967c-0.774,0.495-1.888,0.692-3.339,0.594
			c-2.516,3.807-4.73,5.711-6.646,5.711c-1.084,0-2.07-0.459-2.962-1.373c-0.89-0.916-1.601-2.164-2.133-3.746
			s-0.799-3.351-0.799-5.303c0-1.582,0.411-3.338,1.233-5.268c0.822-1.928,1.888-3.727,3.192-5.396
			c1.308-1.668,2.705-3.017,4.194-4.042c1.49-1.025,2.873-1.539,4.15-1.539c0.91,0,1.627,0.179,2.148,0.537s0.783,0.859,0.783,1.502
			c0,0.495-0.223,1.063-0.668,1.706c0.736,0.198,1.238,0.526,1.51,0.983c0.271,0.458,0.406,1.292,0.406,2.503
			c0,1.187-0.217,2.683-0.652,4.487c-0.436,1.804-1.031,3.499-1.785,5.081l0.521,0.667h0.437c0.328,0,0.652-0.105,0.972-0.315
			s0.605-0.433,0.856-0.668C254.423,44.648,254.975,44.124,255.826,43.309z M249.846,33.554c-1.605,1.236-2.979,2.354-4.121,3.356
			c-1.143,1.002-2.109,2.015-2.902,3.041c-0.795,1.025-1.326,2.059-1.598,3.097c-0.483,2.769-0.726,4.265-0.726,4.487
			c0,1.632,0.89,2.447,2.67,2.447c0.833,0,2.226-0.914,4.181-2.744c-0.328-1.162-0.492-2.274-0.492-3.338
			c0-1.558,0.25-3.146,0.754-4.766C248.113,37.516,248.859,35.656,249.846,33.554z"/>
		<path fill="#E6007E" d="M269.033,43.456c-1.703,2.472-3.227,4.574-4.571,6.305c-1.346,1.73-2.438,3.023-3.28,3.875
			c-0.842,0.854-1.418,1.279-1.728,1.279c-0.503,0-1.069-0.519-1.698-1.558s-1.166-2.361-1.611-3.969
			c-0.443-1.606-0.666-3.238-0.666-4.895c0-2.398,0.908-4.815,2.729-7.25s3.891-4.457,6.212-6.063
			c2.322-1.606,4.063-2.411,5.226-2.411c0.948,0,1.877,0.767,2.787,2.299c1.489-3.98,2.907-7.516,4.252-10.606
			c1.346-3.091,2.473-5.39,3.383-6.898c0.908-1.508,1.558-2.262,1.943-2.262c0.426,0,0.818,0.266,1.176,0.798
			c0.358,0.531,0.537,1.13,0.537,1.798c0,1.286-0.734,3.493-2.205,6.62c-1.472,3.128-2.923,6.175-4.354,9.142
			c-1.433,2.967-2.661,5.89-3.687,8.771c-1.025,2.88-1.539,5.544-1.539,7.991c0,2.226,0.562,3.338,1.685,3.338
			c0.677,0,1.528-0.487,2.555-1.465c1.025-0.978,2.486-2.614,4.384-4.914v2.707c-4.181,6.897-7.402,10.347-9.666,10.347
			c-0.91,0-1.563-0.444-1.961-1.334c-0.396-0.891-0.595-2.213-0.595-3.969C268.337,48.759,268.568,46.2,269.033,43.456z
			 M271.182,34.407c-1.723,0.742-3.744,1.934-6.066,3.579c-2.322,1.644-3.725,2.775-4.209,3.393
			c-0.426,0.495-0.803,1.422-1.133,2.782c-0.328,1.358-0.492,2.385-0.492,3.078c0,0.42,0.097,0.767,0.289,1.038
			c0.193,0.272,0.437,0.408,0.727,0.408c0.271,0,0.581-0.147,0.93-0.444c0.349-0.296,0.904-0.878,1.67-1.743
			c0.764-0.865,1.263-1.421,1.494-1.669c0.328-0.371,1.06-1.168,2.191-2.392c1.132-1.225,1.959-2.183,2.48-2.875
			c0.522-0.692,0.969-1.464,1.336-2.317C270.766,36.391,271.025,35.445,271.182,34.407z"/>
		<path fill="#E6007E" d="M283.954,36.743c2.94-3.412,5.796-5.946,8.563-7.602c2.767-1.657,4.904-2.485,6.414-2.485
			c0.406,0,0.783,0.216,1.133,0.649c0.349,0.433,0.623,0.934,0.826,1.502s0.305,0.989,0.305,1.261c0,0.445-0.135,0.772-0.405,0.983
			c-0.271,0.21-0.745,0.464-1.422,0.76c0.136,0.396,0.31,0.902,0.522,1.521c0.211,0.619,0.377,1.119,0.492,1.502
			c0.116,0.383,0.176,0.723,0.176,1.02c0,0.594-0.471,1.7-1.408,3.32c-0.938,1.619-1.598,2.813-1.975,3.579
			c-0.378,0.767-0.566,1.706-0.566,2.817c0,1.83,0.658,2.746,1.975,2.746c1.354,0,3.475-1.619,6.357-4.858v2.263
			c-4.896,6.947-8.398,10.42-10.508,10.42c-0.756,0-1.293-0.314-1.611-0.945c-0.319-0.631-0.479-1.563-0.479-2.799
			c0-1.955,0.552-4.785,1.655-8.494c-2.826,4.006-4.926,6.854-6.3,8.549c-1.374,1.693-2.507,2.54-3.396,2.54
			c-0.426,0-0.958-0.47-1.597-1.409s-1.205-2.157-1.698-3.652c-0.493-1.496-0.739-3.048-0.739-4.654c0-1.162,0.086-2.133,0.26-2.911
			c0.176-0.779,0.514-1.576,1.018-2.392C282.048,39.154,282.852,38.078,283.954,36.743z M297.857,32.664
			c-5.03,2.942-8.615,5.439-10.754,7.491c-2.14,2.052-3.209,4.165-3.209,6.341c0,0.791,0.106,1.439,0.319,1.947
			c0.213,0.507,0.504,0.76,0.871,0.76c0.213,0,0.591-0.173,1.132-0.52c2.032-1.533,3.891-3.528,5.574-5.988
			C293.475,40.235,295.497,36.892,297.857,32.664z"/>
		<path fill="#E6007E" d="M318.063,44.828l-5.166,5.602c-2.459,2.743-4.104,4.115-4.937,4.115c-0.755,0-1.548-1.105-2.38-3.318
			s-1.248-4.147-1.248-5.805c0-1.41,0.169-2.602,0.508-3.579c0.34-0.977,0.924-2.244,1.756-3.801
			c1.182-2.102,2.313-3.882,3.396-5.341c1.084-1.458,2.042-2.589,2.874-3.393c0.832-0.804,1.412-1.205,1.741-1.205
			c0.521,0,1.03,0.346,1.523,1.039s0.74,1.409,0.74,2.15c0,0.47-0.268,1.224-0.799,2.263c-0.532,1.039-1.374,2.354-2.525,3.95
			c-1.151,1.594-2.753,3.504-4.804,5.729l-0.552,2.039c-0.154,0.396-0.232,0.742-0.232,1.039c0,0.668,0.262,1.002,0.784,1.002
			c0.542,0,1.813-0.877,3.816-2.633c2.003-1.757,4.176-4.117,6.518-7.083c0.909-1.162,1.664-2.188,2.264-3.078
			c0.602-0.89,1.144-1.724,1.626-2.503c0.483-0.778,0.886-1.365,1.205-1.761s0.604-0.605,0.856-0.63
			c0.482-0.074,0.859,0.185,1.132,0.779c0.271,0.593,0.406,1.471,0.406,2.633c0,0.667-0.232,1.502-0.696,2.503
			c-0.465,1.001-1.336,2.708-2.613,5.119c-1.277,2.41-2.55,4.906-3.815,7.49c-1.269,2.584-2.561,5.496-3.877,8.733
			c0.06-0.073,0.653-0.815,1.785-2.225c1.133-1.409,2.327-2.88,3.585-4.413c1.259-1.533,2.294-2.764,3.106-3.689
			c0.812-0.928,1.829-2.009,3.048-3.246v2.485c-2.612,3.585-4.979,6.984-7.098,10.198s-3.754,5.785-4.905,7.714
			s-1.824,3.054-2.018,3.375c-0.522,0.865-0.992,1.675-1.408,2.429s-0.766,1.336-1.045,1.743c-0.28,0.408-0.509,0.612-0.683,0.612
			c-0.407,0-0.77-0.514-1.089-1.539c-0.318-1.026-0.479-1.936-0.479-2.727c0-0.717,0.105-1.348,0.318-1.891
			C310.079,61.702,313.205,54.742,318.063,44.828z"/>
	</g>
	<g>
		<path fill="none" stroke="#000000" stroke-miterlimit="10" d="M175.232,73.996c0,0-0.863-6.167-2.01-6.268
			c-1.146-0.102-7.278-0.057-7.278-0.057c-1.873,0.342-3.338-1.966-3.094-3.27c0.361-1.924,0.978-3.568,0.978-3.568l-0.978-2.223
			c-0.652,0.342,0.737-1.272,0.651-1.729c-0.098-0.53-1.37-0.985-1.465-1.517c-0.149-0.828,1.527-2.27,1.303-3.077
			c-0.285-1.029-3.474-0.677-3.747-1.708c-0.815-3.077,6.071-10.253,6.071-10.253c-0.746-3.624,0.645-8.897,5.089-13.249
			c2.442-2.393,14.464-4.387,19.957-2.561c5.132,1.707,16.618,11.107,11.895,23.424c0,0-3.793,8.007-5.197,9.992
			c-1.428,2.016,1.084,13.26,0.798,14.012c-1.147,3.017-10.57,1.438-12.381-1.196c-2.525-3.675-3.015-11.453-3.015-11.453"/>
		<g>
			<rect x="180.799" y="58.232" width="4.053" height="0.968"/>
			<rect x="180.05" y="56.707" width="5.691" height="0.968"/>
			<rect x="179.855" y="54.824" width="5.886" height="0.967"/>
		</g>
		<g>
			<path fill="#E6007E" stroke="#000000" stroke-miterlimit="10" d="M178.82,52.674h2.297h6.181
				c-0.489-4.351,2.538-6.773,3.149-8.012c7.751-15.673-23.056-16.408-15.02,0C176.389,46.621,178.211,46.574,178.82,52.674z"/>
			<polyline fill="#E6007E" stroke="#000000" stroke-miterlimit="10" points="181.118,52.674 181.118,44.758 179.301,41.387 			"/>
			<polyline fill="#E6007E" stroke="#000000" stroke-miterlimit="10" points="184.387,52.674 184.387,44.758 186.811,41.387 			"/>
		</g>
	</g>
</g>
</svg>
