<?xml version="1.0" encoding="utf-8"?>
<!-- Generator: Adobe Illustrator 16.0.0, SVG Export Plug-In . SVG Version: 6.00 Build 0)  -->
<!DOCTYPE svg PUBLIC "-//W3C//DTD SVG 1.1//EN" "http://www.w3.org/Graphics/SVG/1.1/DTD/svg11.dtd">
<svg version="1.1" id="Layer_2" xmlns="http://www.w3.org/2000/svg" xmlns:xlink="http://www.w3.org/1999/xlink" x="0px" y="0px"
	 width="350px" height="80px" viewBox="0 0 350 80" enable-background="new 0 0 350 80" xml:space="preserve">
<g>
	<g>
		<g>
			<path fill="#FFFFFF" d="M52.24,25.29c-0.299,0.569-0.762,1.369-1.389,2.403c-0.299,0.508-0.755,1.287-1.367,2.343
				c-1.061,1.825-1.891,3.204-2.488,4.137c0.703-0.101,1.539-0.313,2.511-0.639l3.586-1.216c1.225-0.406,2.428-0.608,3.607-0.608
				c2.047,0,3.739,0.816,5.076,2.448c1.338,1.634,2.006,3.696,2.006,6.191c0,3.568-1.117,6.703-3.351,9.402
				c-2.233,2.695-4.829,4.045-7.788,4.045c-2.166,0-4.093-0.715-5.781-2.145s-3.854-4.184-6.5-8.262l-0.47,0.578
				c-5.528,6.592-10.601,9.889-15.217,9.889c-3.796,0-6.93-1.617-9.402-4.852c-2.473-3.236-3.709-7.328-3.709-12.276
				c0-5.436,1.531-9.716,4.595-12.838c2.405-2.475,5.072-3.713,8.001-3.713c2.436,0,4.743,1.167,6.925,3.5
				c1.374,1.48,3.802,5.079,7.283,10.799c1.136,1.867,2.121,3.449,2.958,4.746l0.516,0.762c0.822-0.994,1.449-1.846,1.883-2.557
				c-2.167-1.906-3.25-4.594-3.25-8.062c0-2.109,0.792-3.165,2.376-3.165c-0.972,1.502-1.457,2.87-1.457,4.107
				c0,1.177,0.352,2.145,1.054,2.906c0.702,0.76,1.599,1.14,2.689,1.14c0.119,0,0.343-0.02,0.672-0.06l0.135-0.214
				c0.747-1.135,1.942-3.103,3.585-5.901c1.645-2.8,2.712-4.686,3.206-5.659l0.761-1.521l0.404-0.761
				c0.06-0.102,0.156-0.294,0.291-0.578l0.784,0.334c-0.283,0.67-0.426,1.472-0.426,2.404c0,1.379,0.444,2.713,1.334,4
				c0.889,1.288,1.812,1.932,2.768,1.932c0.986,0,1.83-0.604,2.532-1.81s1.054-2.662,1.054-4.365c0-2.475-0.643-4.376-1.928-5.704
				c-1.285-1.329-3.13-1.993-5.535-1.993c-2.6,0-7.866,0.68-15.8,2.038c-3.586,0.629-6.245,0.943-7.979,0.943
				c-1.554,0-2.682-0.335-3.384-1.004l0.134-0.609c0.508-2.291,0.941-4.481,1.3-6.57l0.83,0.243c-0.15,0.873-0.225,1.582-0.225,2.13
				c0,1.379,1.03,2.068,3.093,2.068c1.27,0,3.743-0.335,7.418-1.004c7.261-1.298,12.207-1.947,14.836-1.947
				c2.81,0,4.994,0.801,6.555,2.403c1.563,1.603,2.343,3.844,2.343,6.725c0,4.705-1.621,8.081-4.863,10.129
				c-1.225,0.771-2.062,1.157-2.51,1.157C55.595,31.162,54.168,29.204,52.24,25.29z M39.802,42.57l-0.2-0.305
				c-0.882-1.358-2.018-3.194-3.407-5.505c-3.392-5.7-6.066-9.56-8.023-11.577s-3.996-3.026-6.118-3.026
				c-2.54,0-4.676,1.282-6.409,3.848s-2.6,5.745-2.6,9.538c0,4.36,1.318,8.139,3.956,11.334c2.637,3.193,5.756,4.789,9.355,4.789
				C30.51,51.666,34.992,48.635,39.802,42.57z M42.402,40.897c1.181,1.804,2.667,3.823,4.46,6.054
				c2.6,3.264,5.087,4.898,7.463,4.898c2.166,0,4.049-1.004,5.647-3.014c1.599-2.008,2.397-4.371,2.397-7.086
				c0-1.969-0.479-3.56-1.434-4.777c-0.957-1.218-2.196-1.825-3.721-1.825c-1.18,0-3.422,0.558-6.724,1.673
				c-2.017,0.69-3.585,1.034-4.706,1.034c-0.373,0-0.747-0.05-1.12-0.151c-0.12,0.161-0.194,0.274-0.225,0.335l-0.852,1.217
				l-0.964,1.307C42.597,40.603,42.521,40.715,42.402,40.897z"/>
			<path fill="#FFFFFF" d="M80.501,28.302l-0.807,3.072c-0.567-0.161-1.068-0.243-1.501-0.243c-1.733,0-3.587,1.806-5.559,5.417
				c-0.927,1.723-1.722,3.599-2.387,5.626c-0.665,2.029-1.49,5.121-2.477,9.279l-0.247,1.035c-0.971,0.283-1.896,0.627-2.778,1.033
				l0.246-0.912l1.973-7.119c1.867-6.854,2.802-10.892,2.802-12.108c0-0.629-0.202-0.942-0.605-0.942
				c-0.225,0-0.725,0.273-1.501,0.821l-0.292-0.942c2.092-1.38,3.967-2.911,5.626-4.595c0.059,0.365,0.089,0.699,0.089,1.005
				c0,1.562-0.516,4.167-1.547,7.819l0.538-0.853c3.481-5.192,5.946-7.789,7.396-7.789C79.784,27.906,80.128,28.038,80.501,28.302z"
				/>
			<path fill="#FFFFFF" d="M85.656,27.45v0.334c0,1.907-0.927,5.68-2.78,11.317l-1.658,5.111c-0.881,2.738-1.337,4.41-1.367,5.02
				c-0.015,0.629,0.239,0.924,0.763,0.883c0.299-0.021,0.792-0.234,1.479-0.637l0.292,0.881c-2.346,1.52-4.221,2.605-5.625,3.254
				c0.074-1.906,0.302-3.666,0.684-5.277c0.381-1.613,1.206-4.285,2.476-8.017c1.614-4.787,2.436-7.586,2.466-8.397
				c0.029-0.628-0.165-0.942-0.583-0.942c-0.194,0-0.448,0.07-0.762,0.213l-0.941,0.456c-0.06,0.021-0.201,0.091-0.426,0.213
				l-0.225-0.974l0.471-0.213c1.659-0.831,3.347-1.765,5.065-2.8L85.656,27.45z M86.955,19.662c0.688,0,1.031,0.467,1.031,1.399
				c0,0.527-0.153,1.004-0.46,1.43c-0.306,0.427-0.653,0.639-1.042,0.639c-0.702,0-1.053-0.466-1.053-1.399
				c0-0.526,0.153-1.003,0.459-1.43C86.197,19.876,86.552,19.662,86.955,19.662z"/>
			<path fill="#FFFFFF" d="M98.833,42.51c-1.897,8.537-3.854,14.775-5.871,18.709c-1.36,2.656-3.119,4.908-5.278,6.754
				c-2.158,1.846-4.12,2.77-5.883,2.77c-0.792,0-1.441-0.258-1.95-0.777c-0.508-0.518-0.762-1.178-0.762-1.992
				c0-0.486,0.082-0.994,0.247-1.52c1.285,1.457,2.741,2.188,4.37,2.188c5.005,0,9.062-8.273,12.169-24.824
				c-1.972,2.982-3.866,5.369-5.682,7.166c-1.814,1.795-3.245,2.691-4.291,2.691c-1.255,0-1.883-1.084-1.883-3.254
				c0-2.516,0.8-5.355,2.397-8.52c1.6-3.163,3.646-5.952,6.142-8.366c3.645-3.529,7.537-5.293,11.676-5.293
				c0.941,0,1.412,0.375,1.412,1.126c0,0.324-0.128,0.902-0.382,1.734l-0.089,0.334c-0.807-0.183-1.719-0.273-2.734-0.273
				c-2.898,0-5.341,0.558-7.328,1.673c-1.987,1.114-3.75,2.92-5.289,5.415c-0.956,1.563-1.748,3.271-2.376,5.125
				c-0.627,1.857-0.94,3.434-0.94,4.732c0,1.969,0.462,2.951,1.389,2.951c0.747,0,1.737-0.73,2.97-2.191s2.409-3.285,3.53-5.477
				c1.747-3.446,2.823-6.733,3.227-9.856c0.613,0.771,0.919,1.685,0.919,2.738c0,1.744-0.74,3.995-2.219,6.755l0.269-0.063
				l0.941-0.182l0.986-0.213L98.833,42.51z"/>
			<path fill="#FFFFFF" d="M117.099,49.143l0.402,0.789c-1.463,1.076-3.361,2.182-5.691,3.316l-0.561,0.273
				c0.164-3.162,1.778-9.188,4.841-18.069c0.478-1.38,0.717-2.313,0.717-2.8c0-0.629-0.171-0.942-0.515-0.942
				c-0.389,0-1.076,0.526-2.063,1.581s-1.941,2.292-2.869,3.713c-1.404,2.108-2.805,4.586-4.201,7.438
				c-1.397,2.85-2.432,5.328-3.104,7.438c-1.046,0.184-2.017,0.59-2.913,1.217l0.246-0.791c1.017-3.225,1.957-6.336,2.824-9.34
				l2.622-9.065l2.667-9.035c1.285-4.441,1.928-7.18,1.928-8.214c0-0.71-0.239-1.065-0.717-1.065c-0.225,0-0.666,0.153-1.322,0.457
				l-0.292,0.151l-0.224-0.882c1.777-0.812,3.563-1.876,5.355-3.194l0.426-0.335c0.016,0.386,0.023,0.67,0.023,0.853
				c0,1.501-0.374,3.716-1.121,6.647c-0.748,2.931-2.241,8.046-4.482,15.348l-2.421,7.94l-0.269,0.852l0.381-0.639
				c5.723-9.614,9.809-14.42,12.26-14.42c0.717,0,1.075,0.486,1.075,1.46c0,0.709-0.269,1.866-0.807,3.468l-1.39,4.168
				c-2.346,7.018-3.518,11.084-3.518,12.201c0,0.445,0.17,0.668,0.514,0.668c0.404,0,1.068-0.346,1.996-1.035L117.099,49.143z"/>
			<path fill="#FFFFFF" d="M131.732,28.149l-0.291,0.913h-3.159l-0.18,0.517c-0.284,0.812-1.053,3.185-2.309,7.119
				c-0.508,1.603-1.225,3.813-2.152,6.632c-1.09,3.287-1.635,5.365-1.635,6.238c0,0.871,0.328,1.309,0.985,1.309
				c0.792,0,1.876-0.629,3.25-1.889l0.358,0.791c-0.896,0.934-1.92,1.727-3.07,2.373c-1.15,0.65-2.1,0.975-2.846,0.975
				c-1.121,0-1.682-0.6-1.682-1.795c0-0.854,0.628-3.244,1.883-7.18l2.33-7.21c1.301-4.077,2.055-6.47,2.264-7.181l0.225-0.699
				h-2.936l0.314-0.913h0.291c1.285,0,2.146-0.274,2.588-0.821c0.44-0.547,1.042-2.089,1.805-4.623
				c0.224,0.02,0.373,0.029,0.447,0.029c0.717,0,1.428-0.121,2.129-0.364c-0.164,0.589-0.455,1.552-0.873,2.891l-0.673,2.189
				l-0.224,0.699H131.732z"/>
			<path fill="#FFFFFF" d="M140.831,39.985c0.21,0.567,0.314,1.073,0.314,1.519c0,1.947-0.994,4.189-2.98,6.725
				c-2.898,3.711-5.364,5.568-7.396,5.568c-1.747,0-2.621-1.35-2.621-4.045c0-3.045,0.683-6.238,2.051-9.585
				c1.366-3.347,3.119-6.105,5.255-8.274c2.6-2.637,4.915-3.955,6.948-3.955c1.18,0,1.77,0.588,1.77,1.764
				c0,0.771-0.284,1.699-0.852,2.784c-0.568,1.084-1.277,2.063-2.129,2.936c-0.792,0.791-1.797,1.521-3.015,2.191
				s-2.155,1.003-2.812,1.003c-0.703,0-1.189-0.526-1.457-1.582c0.627,0.123,1.127,0.183,1.501,0.183
				c1.494,0,2.872-0.582,4.135-1.748c1.263-1.167,1.894-2.43,1.894-3.789c0-0.974-0.463-1.46-1.39-1.46
				c-1.658,0-3.354,1.379-5.087,4.137c-1.226,1.948-2.233,4.22-3.025,6.816c-0.792,2.596-1.188,4.906-1.188,6.936
				c0,2.09,0.642,3.133,1.928,3.133c1.403,0,2.864-1.049,4.381-3.148C138.571,45.992,139.831,43.291,140.831,39.985z"/>
			<path fill="#FFFFFF" d="M157.124,28.302l-0.807,3.072c-0.567-0.161-1.068-0.243-1.502-0.243c-1.732,0-3.585,1.806-5.557,5.417
				c-0.927,1.723-1.723,3.599-2.388,5.626c-0.665,2.029-1.49,5.121-2.476,9.279l-0.247,1.035c-0.972,0.283-1.897,0.627-2.778,1.033
				l0.246-0.912l1.972-7.119c1.868-6.854,2.802-10.892,2.802-12.108c0-0.629-0.201-0.942-0.605-0.942
				c-0.224,0-0.725,0.273-1.502,0.821l-0.291-0.942c2.092-1.38,3.967-2.911,5.625-4.595c0.061,0.365,0.09,0.699,0.09,1.005
				c0,1.562-0.516,4.167-1.545,7.819l0.537-0.853c3.48-5.192,5.945-7.789,7.396-7.789C156.407,27.906,156.751,28.038,157.124,28.302
				z"/>
		</g>
		<rect x="13.231" y="61.963" width="143.893" height="0.984"/>
	</g>
	<g>
		<g>
			<path fill="#FFFFFF" d="M255.949,12.095c-0.5,2.274-1.205,4.681-2.113,7.217l-0.123,0.333c2.705,0.966,4.68,2.324,5.92,4.076
				c1.238,1.752,1.857,4.047,1.857,6.886c0,5.092-1.887,10.026-5.66,14.798l0.389,0.393c2.494,2.596,4.008,3.914,4.543,3.953
				c0.391,0.021,0.932-0.381,1.631-1.205l0.85-0.998c0.016-0.021,0.096-0.1,0.242-0.242l0.68,0.637
				c-0.6,0.783-1.424,1.791-2.479,3.02c-0.891,1.045-1.572,1.861-2.041,2.445l-0.463,0.572l-0.777-0.844
				c-2.219-2.377-3.92-4.117-5.104-5.225c-2.123,1.932-4.602,3.441-7.438,4.529c-2.834,1.088-5.709,1.631-8.627,1.631
				c-5.51,0-9.818-1.512-12.928-4.531c-3.111-3.018-4.668-7.209-4.668-12.562c0-3.925,0.873-7.56,2.613-10.901
				c1.742-3.342,4.25-6.181,7.523-8.516c5.621-4.006,12.248-6.01,19.879-6.01C251.633,11.551,253.73,11.732,255.949,12.095z
				 M252.963,14.691c-2.076-0.442-4.408-0.664-7.002-0.664c-7.08,0-12.449,1.712-16.111,5.133c-2.172,2.014-3.865,4.545-5.08,7.596
				c-1.215,3.05-1.824,6.285-1.824,9.708c0,5.032,1.436,8.983,4.303,11.854c2.867,2.867,6.807,4.303,11.813,4.303
				c5.264,0,9.656-1.883,13.172-5.648c-2.982-2.816-6.068-5.037-9.26-6.658c-3.193-1.621-6.051-2.432-8.58-2.432
				c-1.133,0-2.186,0.141-3.158,0.423c1.037-1.47,1.83-2.748,2.381-3.835l0.414,0.029c0.857,0.082,1.596,0.122,2.213,0.122
				c7.336,0,12.482-4.691,15.432-14.072c-1.49-0.383-2.941-0.573-4.352-0.573c-3.354,0-6.24,1.082-8.662,3.246
				c-2.424,2.164-3.926,5.008-4.51,8.53c-0.371-0.685-0.559-1.5-0.559-2.446c0-2.979,1.377-5.479,4.131-7.504
				c2.754-2.022,6.174-3.034,10.258-3.034c1.133,0,2.494,0.131,4.08,0.392C252.451,17.792,252.75,16.303,252.963,14.691z
				 M253.252,21.003l-0.314,0.755c-1.637,3.765-3.412,6.709-5.322,8.833c-1.912,2.124-4.277,3.779-7.098,4.967
				c5.17,1.833,9.803,4.69,13.9,8.577c1.184-1.713,2.125-3.721,2.822-6.025c0.695-2.304,1.045-4.564,1.045-6.778
				c0-2.638-0.439-4.858-1.314-6.658C256.098,22.87,254.855,21.646,253.252,21.003z"/>
			<path fill="#FFFFFF" d="M284.943,28.643c-1.133,2.698-2.512,6.493-4.131,11.385c-1.621,4.893-2.447,7.742-2.48,8.547
				c-0.014,0.623,0.262,0.936,0.828,0.936c0.438,0,1.076-0.201,1.918-0.604l0.318,0.814c-1.184,0.766-3.135,1.793-5.857,3.082
				l-0.656,0.303c0.422-3.283,1.232-6.785,2.43-10.512c-2.09,3.283-4.07,5.854-5.941,7.717c-1.871,1.861-3.414,2.795-4.629,2.795
				c-1.07,0-1.605-0.695-1.605-2.084c0-1.672,0.996-5.105,2.99-10.299l1.943-5.074c0.6-1.569,0.916-2.698,0.947-3.383
				c0.033-0.663-0.244-0.996-0.826-0.996c-0.258,0-0.713,0.121-1.361,0.363l-0.193-0.906l0.389-0.151
				c2.27-0.826,4.156-1.641,5.664-2.445c0,1.609-0.723,4.257-2.164,7.941l-2.115,5.376c-1.619,4.129-2.43,6.654-2.43,7.578
				c0,0.867,0.309,1.301,0.922,1.301c1.572,0,3.656-2.039,6.248-6.115c2.592-4.077,4.656-8.572,6.197-13.484l0.314-0.966
				C282.602,29.639,283.695,29.267,284.943,28.643z"/>
			<path fill="#FFFFFF" d="M300.861,31.27c-0.857-0.101-1.57-0.15-2.137-0.15c-4.262,0-7.527,2.033-9.795,6.1
				c-0.891,1.61-1.645,3.458-2.26,5.541c-0.617,2.086-0.924,3.832-0.924,5.24c0,0.986,0.23,1.797,0.693,2.432
				c0.463,0.633,1.049,0.951,1.762,0.951c1.686,0,3.547-1.682,5.588-5.043c2.043-3.363,3.063-6.443,3.063-9.241
				c0-0.625-0.133-1.153-0.398-1.585c-0.27-0.433-0.59-0.65-0.961-0.65c-1.297,0-2.537,1.61-3.719,4.831
				c-0.084-0.4-0.121-0.754-0.121-1.057c0-1.247,0.623-2.556,1.871-3.926c1.246-1.368,2.43-2.054,3.547-2.054
				c0.746,0,1.379,0.378,1.896,1.133s0.777,1.677,0.777,2.764c0,3.644-1.869,7.51-5.613,11.596
				c-3.209,3.543-5.875,5.316-7.996,5.316c-0.924,0-1.689-0.414-2.297-1.24c-0.607-0.824-0.912-1.861-0.912-3.109
				c0-2.758,0.773-5.643,2.322-8.65c1.547-3.011,3.584-5.604,6.113-7.777c1.393-1.188,2.912-2.164,4.555-2.929
				c1.646-0.765,3.043-1.148,4.193-1.148c0.713,0,1.068,0.393,1.068,1.178C301.178,30.093,301.074,30.585,300.861,31.27z"/>
			<path fill="#FFFFFF" d="M313.111,28.431l-0.316,0.906h-3.428l-0.193,0.514c-0.307,0.806-1.143,3.161-2.502,7.065
				c-0.553,1.591-1.33,3.786-2.334,6.584c-1.184,3.262-1.773,5.326-1.773,6.191s0.355,1.299,1.068,1.299
				c0.859,0,2.035-0.625,3.525-1.873l0.387,0.785c-0.971,0.928-2.082,1.711-3.328,2.355c-1.248,0.645-2.277,0.965-3.086,0.965
				c-1.215,0-1.824-0.592-1.824-1.779c0-0.846,0.682-3.223,2.043-7.127l2.527-7.157c1.408-4.048,2.227-6.423,2.455-7.127
				l0.242-0.695h-3.184l0.34-0.906h0.316c1.393,0,2.326-0.271,2.807-0.814c0.479-0.544,1.131-2.073,1.957-4.59
				c0.242,0.021,0.404,0.03,0.484,0.03c0.779,0,1.547-0.121,2.309-0.363c-0.178,0.584-0.494,1.54-0.945,2.869l-0.73,2.174
				l-0.244,0.694H313.111z"/>
			<path fill="#FFFFFF" d="M322.979,40.178c0.227,0.565,0.34,1.066,0.34,1.512c0,1.932-1.076,4.156-3.232,6.672
				c-3.143,3.686-5.816,5.527-8.02,5.527c-1.895,0-2.846-1.338-2.846-4.016c0-3.02,0.742-6.191,2.227-9.515
				c1.482-3.32,3.381-6.059,5.697-8.212c2.82-2.617,5.33-3.927,7.535-3.927c1.279,0,1.92,0.584,1.92,1.751
				c0,0.766-0.307,1.687-0.924,2.764c-0.615,1.077-1.387,2.049-2.309,2.914c-0.859,0.786-1.949,1.511-3.27,2.175
				s-2.336,0.996-3.049,0.996c-0.762,0-1.287-0.522-1.58-1.57c0.68,0.121,1.223,0.182,1.629,0.182c1.619,0,3.113-0.578,4.482-1.736
				c1.371-1.158,2.055-2.411,2.055-3.76c0-0.967-0.502-1.45-1.508-1.45c-1.799,0-3.637,1.37-5.516,4.107
				c-1.328,1.933-2.422,4.188-3.281,6.764c-0.859,2.578-1.287,4.873-1.287,6.887c0,2.072,0.695,3.109,2.09,3.109
				c1.521,0,3.105-1.041,4.75-3.125C320.527,46.145,321.893,43.459,322.979,40.178z"/>
			<path fill="#FFFFFF" d="M338.436,28.522l-0.268,0.572l-1.191,2.478c-0.422,0.885-0.867,1.771-1.338,2.657l-0.266,0.482
				l-0.607-0.513c0.082-0.222,0.139-0.382,0.17-0.483c0.34-0.865,0.51-1.479,0.51-1.843c0-0.765-0.541-1.146-1.627-1.146
				c-0.99,0-1.855,0.458-2.602,1.374s-1.117,1.979-1.117,3.186c0,0.645,0.162,1.41,0.486,2.294l1.166,3.11
				c0.389,1.048,0.584,2.194,0.584,3.444c0,2.438-1.078,4.742-3.232,6.916c-1.865,1.871-3.516,2.809-4.959,2.809
				c-0.826,0-1.506-0.256-2.041-0.771c-0.535-0.512-0.801-1.172-0.801-1.977c0-0.945,0.193-1.863,0.582-2.75
				c1.004,2.135,2.252,3.201,3.742,3.201c1.184,0,2.229-0.502,3.135-1.51c0.908-1.004,1.361-2.172,1.361-3.502
				c0-0.705-0.162-1.51-0.486-2.416l-1.434-3.896c-0.275-0.766-0.412-1.61-0.412-2.537c0-1.672,0.744-3.544,2.234-5.617
				c1.004-1.368,2.006-2.33,3.002-2.883c0.996-0.554,2.248-0.831,3.754-0.831C337.365,28.371,337.918,28.422,338.436,28.522z"/>
		</g>
		<rect x="220.215" y="61.471" width="118.221" height="0.984"/>
	</g>
	<g>
		<path fill="none" stroke="#010202" stroke-miterlimit="10" d="M181.798,68.383c0,0-0.863-6.166-2.01-6.268
			s-7.279-0.057-7.279-0.057c-1.873,0.342-3.338-1.967-3.094-3.271c0.361-1.924,0.979-3.566,0.979-3.566l-0.979-2.225
			c-0.651,0.344,0.737-1.271,0.651-1.729c-0.099-0.529-1.37-0.984-1.465-1.516c-0.149-0.828,1.526-2.271,1.303-3.078
			c-0.284-1.029-3.474-0.678-3.747-1.707c-0.814-3.077,6.071-10.253,6.071-10.253c-0.746-3.624,0.646-8.897,5.089-13.249
			c2.441-2.394,14.464-4.388,19.956-2.562c5.133,1.707,16.619,11.107,11.895,23.424c0,0-3.793,8.007-5.195,9.991
			c-1.43,2.018,1.084,13.26,0.797,14.012c-1.146,3.018-10.57,1.439-12.381-1.195c-2.525-3.674-3.016-11.453-3.016-11.453"/>
		<g>
			<rect x="187.364" y="52.619" fill="#010202" width="4.052" height="0.969"/>
			<rect x="186.615" y="51.094" fill="#010202" width="5.691" height="0.969"/>
			<rect x="186.421" y="49.211" fill="#010202" width="5.886" height="0.967"/>
		</g>
		<g>
			<path fill="#FFED00" stroke="#010202" stroke-miterlimit="10" d="M185.386,47.061h2.296h6.182
				c-0.49-4.35,2.537-6.772,3.148-8.011c7.752-15.673-23.056-16.408-15.02,0C182.954,41.009,184.776,40.962,185.386,47.061z"/>
			<polyline fill="#FFED00" stroke="#010202" stroke-miterlimit="10" points="187.684,47.061 187.684,39.146 185.866,35.774 			"/>
			<polyline fill="#FFED00" stroke="#010202" stroke-miterlimit="10" points="190.951,47.061 190.951,39.146 193.375,35.774 			"/>
		</g>
	</g>
</g>
</svg>
