<?xml version="1.0" encoding="utf-8"?>
<!-- Generator: Adobe Illustrator 16.0.0, SVG Export Plug-In . SVG Version: 6.00 Build 0)  -->
<!DOCTYPE svg PUBLIC "-//W3C//DTD SVG 1.1//EN" "http://www.w3.org/Graphics/SVG/1.1/DTD/svg11.dtd">
<svg version="1.1" id="Layer_1" xmlns="http://www.w3.org/2000/svg" xmlns:xlink="http://www.w3.org/1999/xlink" x="0px" y="0px" width="50px" height="50px" viewBox="0 0 50 50" enable-background="new 0 0 50 50" xml:space="preserve">
                <g>
                	<path fill="#A3195B" d="M7.55,47.345c0.8,0.92,4.58,0.59,4.58,0.59l2.333-6.31H5.183C5.901,44.327,6.696,46.369,7.55,47.345z"></path>
                	<path fill="#64081d" d="M49.17,1.125h-6.55l-2.953,26.063L27.6,1.125h-4.01L11.083,27.206L7.87,1.125c0,0-3.11,0-5.65,0
                		c-1.471,0-1.094,13.615,0.434,26.167h17.106l5.699-15.417l5.421,15.417h16.896C49.198,15.73,49.795,3.282,49.17,1.125z"></path>
                	<path fill="#A3195B" d="M38.27,48.305c0,0,3.011,0.351,4.061-0.14c1.093-0.514,2.099-2.986,2.99-6.54h-9.399L38.27,48.305z"></path>
                	<polygon fill="#fff" points="25.34,26.156 22.901,30.653 17.576,30.695 21.292,35.155 29.298,35.155 33.065,30.695
                		27.782,30.688 	"></polygon>
                	<polygon fill="#fff" points="21.374,35.815 20.59,41.03 25.32,38.738 30.05,40.82 29.267,35.771 	"></polygon>
                </g>
    </svg>
